HIERARCHY
ROOT Hips
{
    OFFSET   0.000000   0.000000   0.000000
    CHANNELS 6 Xposition Yposition Zposition Zrotation Xrotation Yrotation
    JOINT Chest
    {
        OFFSET   0.000000   8.007230   0.000000
        CHANNELS 3 Zrotation Xrotation Yrotation
        JOINT Chest2
        {
            OFFSET   0.000000  22.077100   0.000000
            CHANNELS 3 Zrotation Xrotation Yrotation
            JOINT Neck
            {
                OFFSET   0.000000  23.254800  -0.000021
                CHANNELS 3 Zrotation Xrotation Yrotation
                JOINT Head
                {
                    OFFSET   0.000000  14.370000   1.956610
                    CHANNELS 3 Zrotation Xrotation Yrotation
                    End Site
                    {
                        OFFSET   0.000000  19.566000   0.000000
                    }
                }
            }
            JOINT LeftCollar
            {
                OFFSET   3.911900  19.017000  -0.467063
                CHANNELS 3 Zrotation Xrotation Yrotation
                JOINT LeftShoulder
                {
                    OFFSET  10.383700   0.000000   0.000000
                    CHANNELS 3 Zrotation Xrotation Yrotation
                    JOINT LeftElbow
                    {
                        OFFSET  26.662100   0.001529   0.000325
                        CHANNELS 3 Zrotation Xrotation Yrotation
                        JOINT LeftWrist
                        {
                            OFFSET  28.869000  -0.000011  -0.000096
                            CHANNELS 3 Zrotation Xrotation Yrotation
                            JOINT LeftFinger0
                            {
                                OFFSET   2.044650  -2.323460   3.252850
                                CHANNELS 3 Zrotation Xrotation Yrotation
                                JOINT LeftFinger01
                                {
                                    OFFSET   3.088130   0.000000   0.000000
                                    CHANNELS 3 Zrotation Xrotation Yrotation
                                    JOINT LeftFinger02
                                    {
                                        OFFSET   2.639460   0.000000   0.000000
                                        CHANNELS 3 Zrotation Xrotation Yrotation
                                        End Site
                                        {
                                            OFFSET   2.582190   0.000000   0.000000
                                        }
                                    }
                                }
                            }
                            JOINT LeftFinger1
                            {
                                OFFSET   8.364480   0.000000   3.252850
                                CHANNELS 3 Zrotation Xrotation Yrotation
                                JOINT LeftFinger11
                                {
                                    OFFSET   4.646930   0.000000   0.000000
                                    CHANNELS 3 Zrotation Xrotation Yrotation
                                    JOINT LeftFinger12
                                    {
                                        OFFSET   2.323460   0.000000   0.000000
                                        CHANNELS 3 Zrotation Xrotation Yrotation
                                        End Site
                                        {
                                            OFFSET   2.273050   0.000000   0.000000
                                        }
                                    }
                                }
                            }
                            JOINT LeftFinger2
                            {
                                OFFSET   8.364480   0.000016   1.078090
                                CHANNELS 3 Zrotation Xrotation Yrotation
                                JOINT LeftFinger21
                                {
                                    OFFSET   5.111620   0.000000   0.000000
                                    CHANNELS 3 Zrotation Xrotation Yrotation
                                    JOINT LeftFinger22
                                    {
                                        OFFSET   2.788160   0.000017   0.000000
                                        CHANNELS 3 Zrotation Xrotation Yrotation
                                        End Site
                                        {
                                            OFFSET   2.727660   0.000000   0.000000
                                        }
                                    }
                                }
                            }
                            JOINT LeftFinger3
                            {
                                OFFSET   7.899780   0.000015  -1.078090
                                CHANNELS 3 Zrotation Xrotation Yrotation
                                JOINT LeftFinger31
                                {
                                    OFFSET   4.646920   0.000000   0.000000
                                    CHANNELS 3 Zrotation Xrotation Yrotation
                                    JOINT LeftFinger32
                                    {
                                        OFFSET   2.323470   0.000000   0.000000
                                        CHANNELS 3 Zrotation Xrotation Yrotation
                                        End Site
                                        {
                                            OFFSET   2.273050   0.000000   0.000000
                                        }
                                    }
                                }
                            }
                            JOINT LeftFinger4
                            {
                                OFFSET   7.435090   0.000000  -3.252850
                                CHANNELS 3 Zrotation Xrotation Yrotation
                                JOINT LeftFinger41
                                {
                                    OFFSET   3.717550   0.000000   0.000000
                                    CHANNELS 3 Zrotation Xrotation Yrotation
                                    JOINT LeftFinger42
                                    {
                                        OFFSET   1.858760   0.000000   0.000000
                                        CHANNELS 3 Zrotation Xrotation Yrotation
                                        End Site
                                        {
                                            OFFSET   1.818440   0.000000   0.000000
                                        }
                                    }
                                }
                            }
                        }
                    }
                }
            }
            JOINT RightCollar
            {
                OFFSET  -3.911900  19.017000  -0.467062
                CHANNELS 3 Zrotation Xrotation Yrotation
                JOINT RightShoulder
                {
                    OFFSET -10.383700   0.000015   0.000000
                    CHANNELS 3 Zrotation Xrotation Yrotation
                    JOINT RightElbow
                    {
                        OFFSET -26.662100   0.001341   0.000385
                        CHANNELS 3 Zrotation Xrotation Yrotation
                        JOINT RightWrist
                        {
                            OFFSET -28.869000   0.000025  -0.000080
                            CHANNELS 3 Zrotation Xrotation Yrotation
                            JOINT RightFinger0
                            {
                                OFFSET  -2.044650  -2.323490   3.252850
                                CHANNELS 3 Zrotation Xrotation Yrotation
                                JOINT RightFinger01
                                {
                                    OFFSET  -3.088130   0.000000   0.000000
                                    CHANNELS 3 Zrotation Xrotation Yrotation
                                    JOINT RightFinger02
                                    {
                                        OFFSET  -2.639460   0.000000   0.000000
                                        CHANNELS 3 Zrotation Xrotation Yrotation
                                        End Site
                                        {
                                            OFFSET  -2.582190   0.000000   0.000000
                                        }
                                    }
                                }
                            }
                            JOINT RightFinger1
                            {
                                OFFSET  -8.364480   0.000000   3.252850
                                CHANNELS 3 Zrotation Xrotation Yrotation
                                JOINT RightFinger11
                                {
                                    OFFSET  -4.646930   0.000000   0.000000
                                    CHANNELS 3 Zrotation Xrotation Yrotation
                                    JOINT RightFinger12
                                    {
                                        OFFSET  -2.323470   0.000000   0.000000
                                        CHANNELS 3 Zrotation Xrotation Yrotation
                                        End Site
                                        {
                                            OFFSET  -2.273050   0.000000   0.000000
                                        }
                                    }
                                }
                            }
                            JOINT RightFinger2
                            {
                                OFFSET  -8.364480   0.000000   1.078090
                                CHANNELS 3 Zrotation Xrotation Yrotation
                                JOINT RightFinger21
                                {
                                    OFFSET  -5.111610   0.000000   0.000000
                                    CHANNELS 3 Zrotation Xrotation Yrotation
                                    JOINT RightFinger22
                                    {
                                        OFFSET  -2.788160   0.000000   0.000000
                                        CHANNELS 3 Zrotation Xrotation Yrotation
                                        End Site
                                        {
                                            OFFSET  -2.727660   0.000000   0.000000
                                        }
                                    }
                                }
                            }
                            JOINT RightFinger3
                            {
                                OFFSET  -7.899780   0.000000  -1.078090
                                CHANNELS 3 Zrotation Xrotation Yrotation
                                JOINT RightFinger31
                                {
                                    OFFSET  -4.646920   0.000000   0.000000
                                    CHANNELS 3 Zrotation Xrotation Yrotation
                                    JOINT RightFinger32
                                    {
                                        OFFSET  -2.323470   0.000000   0.000000
                                        CHANNELS 3 Zrotation Xrotation Yrotation
                                        End Site
                                        {
                                            OFFSET  -2.273050   0.000000   0.000000
                                        }
                                    }
                                }
                            }
                            JOINT RightFinger4
                            {
                                OFFSET  -7.435090   0.000000  -3.252850
                                CHANNELS 3 Zrotation Xrotation Yrotation
                                JOINT RightFinger41
                                {
                                    OFFSET  -3.717550   0.000000   0.000000
                                    CHANNELS 3 Zrotation Xrotation Yrotation
                                    JOINT RightFinger42
                                    {
                                        OFFSET  -1.858770   0.000000   0.000000
                                        CHANNELS 3 Zrotation Xrotation Yrotation
                                        End Site
                                        {
                                            OFFSET  -1.818440   0.000000   0.000000
                                        }
                                    }
                                }
                            }
                        }
                    }
                }
            }
        }
    }
    JOINT LeftHip
    {
        OFFSET   9.783010   0.000000   0.000000
        CHANNELS 3 Zrotation Xrotation Yrotation
        JOINT LeftKnee
        {
            OFFSET   0.000070 -41.789100   0.000028
            CHANNELS 3 Zrotation Xrotation Yrotation
            JOINT LeftAnkle
            {
                OFFSET   0.000087 -41.133200  -0.000100
                CHANNELS 3 Zrotation Xrotation Yrotation
                JOINT LeftToe
                {
                    OFFSET   0.000000  -6.358960  14.674500
                    CHANNELS 3 Zrotation Xrotation Yrotation
                    End Site
                    {
                        OFFSET   0.000000   0.000000   3.913200
                    }
                }
            }
        }
    }
    JOINT RightHip
    {
        OFFSET  -9.783020   0.000000   0.000000
        CHANNELS 3 Zrotation Xrotation Yrotation
        JOINT RightKnee
        {
            OFFSET   0.000044 -41.789100  -0.000870
            CHANNELS 3 Zrotation Xrotation Yrotation
            JOINT RightAnkle
            {
                OFFSET  -0.000090 -41.133200  -0.000245
                CHANNELS 3 Zrotation Xrotation Yrotation
                JOINT RightToe
                {
                    OFFSET   0.000000  -6.358960  14.674500
                    CHANNELS 3 Zrotation Xrotation Yrotation
                    End Site
                    {
                        OFFSET   0.000000   0.000000   3.913200
                    }
                }
            }
        }
    }
}
MOTION
Frames: 5
Frame Time:   0.016667
  1.230520  89.969700   0.711589  -3.839830 -14.031300  -9.113130   0.513385   9.833160   0.044982   1.042400  19.666300  -0.001071   2.741460   3.308930  -0.157285   4.546260   6.663920 -13.974500  -2.020900  -2.340160   2.210420 -58.715600  27.597400 -35.174100  -0.112357 -14.870900 -87.954100   7.949610 -74.211500  32.541900  43.676900  24.034000 -56.882900  -5.019180  -0.000667   0.000072   2.490380  -0.005037  -0.009979 -11.310900  -0.588143   2.938710  -9.266800   0.000206  -0.000409  -6.486750   0.002799  -0.000368 -15.664400  -2.883130  10.169800 -15.921100   0.005391  -0.000371 -10.603400   0.006040   0.000000 -10.341400  -1.917730  10.392900 -10.515900   0.000509   0.000263  -7.003600   0.003587   0.000458  -9.701540  -2.446470  13.988400 -15.003700   0.005632  -0.001198  -9.992440   0.002401  -0.000669  10.764300  -0.644960   7.978580  71.806300   9.347800  37.284300  -8.127620 -31.155600  76.766800 -93.154100 -67.245600 -45.822800 -41.937700  25.068400  61.319500   7.397930   0.003266  -0.000327  -1.301040  -0.001057   0.007690  15.414000   1.284130   4.649380  12.654100   0.002891   0.000377   8.857880   0.006138  -0.000269  13.310600  -0.528603  -2.230640  13.320900   0.000951   0.001020   8.871730   0.001284   0.000305  13.254900  -1.759540  -7.422390  13.369100   0.000234  -0.000346   8.903810   0.002204   0.000162  16.450100  -2.172370  -7.314630  24.883500  -0.001140  -0.000886  16.572400  -0.002381  -0.001594   0.769777  14.724400   3.004840  -0.157307   1.874800  14.057700  -3.935650  -4.341640   6.224510   0.000000   0.000000   0.000000   3.465690  12.454200  -8.147310  -2.322260   5.368340  -6.649180  -8.192080  -1.250030   9.366270   0.000000   0.000000  -0.000000
  1.204680  89.960100   0.754409  -3.874250 -13.950700  -9.298340   0.523419   9.809990   0.014200   1.065020  19.619700  -0.065766   2.739370   3.306100  -0.156537   4.543360   6.659490 -13.781900  -2.031120  -2.334560   2.213810 -58.605900  27.685900 -35.275700  -0.080737 -14.935600 -87.877200   7.905960 -74.227600  32.497200  43.654100  24.008800 -56.887900  -4.978590  -0.000711   0.000036   2.510680  -0.005134  -0.010133 -11.336500  -0.575460   2.868760  -9.287250   0.000101  -0.000423  -6.501310   0.002824  -0.000374 -15.694000  -2.871280  10.110300 -15.948800   0.005480  -0.000389 -10.621800   0.006059   0.000000 -10.361700  -1.910260  10.332900 -10.534500   0.000510   0.000217  -7.015950   0.003654   0.000385  -9.741130  -2.447970  13.948500 -15.061800   0.005713  -0.001266 -10.031100   0.002464  -0.000751  10.756700  -0.665159   8.011450  71.675200   9.420450  37.381800  -8.200470 -31.065000  76.948600 -92.137300 -67.231700 -44.544400 -42.028700  25.250900  61.460000   7.359020   0.003357  -0.000342  -1.320490  -0.001049   0.007899  15.554500   1.299600   4.659980  12.769700   0.003175   0.000402   8.938790   0.006156  -0.000175  13.427800  -0.529989  -2.216950  13.438100   0.001005   0.001045   8.949750   0.001341   0.000326  13.342300  -1.772110  -7.426430  13.457300   0.000381  -0.000223   8.962570   0.002184   0.000198  16.465300  -2.176720  -7.319480  24.906800  -0.000971  -0.000803  16.587900  -0.002148  -0.001470   0.776678  14.722600   3.026970  -0.164828   1.869620  14.178200  -3.941690  -4.397010   6.266160   0.000000   0.000000  -0.000000   3.480000  12.426600  -8.155520  -2.313140   5.311760  -6.572600  -8.216390  -1.258130   9.475380  -0.000000   0.000000  -0.000000
  1.177190  89.951900   0.798486  -3.899580 -13.873300  -9.446350   0.528859   9.785040  -0.013760   1.084460  19.569500  -0.123564   2.733160   3.286260  -0.155271   4.531700   6.617910 -13.521900  -2.043490  -2.328830   2.220490 -58.507500  27.775400 -35.368100  -0.058569 -14.994300 -87.815700   7.861070 -74.236600  32.450600  43.628500  23.988000 -56.885100  -4.919560  -0.000754   0.000000   2.540200  -0.005230  -0.010287 -11.355600  -0.563301   2.802920  -9.302240   0.000000  -0.000443  -6.511570   0.002848  -0.000380 -15.716100  -2.858730  10.050900 -15.967500   0.005566  -0.000410 -10.634300   0.006078   0.000000 -10.382800  -1.902920  10.272700 -10.553900   0.000511   0.000163  -7.028880   0.003722   0.000319  -9.780920  -2.449180  13.908300 -15.120000   0.005794  -0.001334 -10.069900   0.002528  -0.000833  10.740200  -0.676837   8.047490  71.510500   9.507070  37.557000  -8.282160 -31.016500  77.129500 -90.964900 -67.183100 -43.072200 -42.190900  25.496700  61.649300   7.294610   0.003448  -0.000355  -1.352690  -0.001047   0.008104  15.670300   1.313520   4.672900  12.865100   0.003464   0.000427   9.005530   0.006174  -0.000079  13.527900  -0.532412  -2.210220  13.538200   0.001062   0.001072   9.016420   0.001399   0.000349  13.415500  -1.783460  -7.432580  13.531300   0.000537  -0.000099   9.011880   0.002151   0.000237  16.470300  -2.178700  -7.327170  24.914700  -0.000799  -0.000715  16.593200  -0.001905  -0.001340   0.786696  14.721700   3.034960  -0.175015   1.862130  14.288600  -3.949950  -4.447310   6.286630  -0.000000   0.000000  -0.000000   3.490430  12.401400  -8.167800  -2.296880   5.259270  -6.514040  -8.238840  -1.270610   9.568820   0.000000   0.000000   0.000000
  1.148270  89.945100   0.843392  -3.918330 -13.801400  -9.565150   0.528993   9.762480  -0.040825   1.090580  19.524200  -0.178596   2.718520   3.240270  -0.152991   4.507440   6.525200 -13.172800  -2.057510  -2.328730   2.230260 -58.433700  27.856900 -35.441100  -0.073460 -15.045300 -87.794600   7.868870 -74.228000  32.459600  43.646700  24.014800 -56.879800  -4.808080  -0.000791   0.000000   2.595950  -0.005316  -0.010442 -11.342300  -0.551630   2.747730  -9.290810  -0.000077  -0.000456  -6.503560   0.002855  -0.000390 -15.716000  -2.842610   9.994510 -15.964600   0.005662  -0.000435 -10.632400   0.006091  -0.000053 -10.395200  -1.894320  10.214600 -10.564600   0.000510   0.000065  -7.035990   0.003772   0.000283  -9.806700  -2.445640  13.855800 -15.156200   0.005873  -0.001401 -10.094000   0.002598  -0.000919  10.724300  -0.695209   8.085880  71.321700   9.628580  37.742000  -8.358710 -31.037300  77.325300 -89.789500 -66.992700 -41.570000 -42.371100  25.824900  61.925900   7.241310   0.003538  -0.000363  -1.379350  -0.001051   0.008309  15.787300   1.330510   4.698240  12.961500   0.003754   0.000447   9.073040   0.006191   0.000016  13.644700  -0.537017  -2.212380  13.654800   0.001125   0.001108   9.094110   0.001460   0.000382  13.514500  -1.797520  -7.437080  13.631100   0.000693   0.000021   9.078320   0.002123   0.000277  16.475500  -2.181520  -7.333200  24.922800  -0.000622  -0.000634  16.598600  -0.001651  -0.001194   0.796779  14.719800   3.034900  -0.186808   1.855890  14.390200  -3.959840  -4.493250   6.289750  -0.000000   0.000000  -0.000000   3.495580  12.371900  -8.170690  -2.278540   5.221330  -6.479530  -8.254050  -1.290260   9.651980   0.000000   0.000000   0.000000
  1.118300  89.941800   0.889445  -3.926550 -13.735400  -9.637850   0.522801   9.739840  -0.064919   1.080990  19.478700  -0.226610   2.699070   3.170990  -0.149441   4.474070   6.386530 -12.695100  -2.070320  -2.328630   2.236740 -58.374200  27.931300 -35.498500  -0.088123 -15.083900 -87.775700   7.882370 -74.193300  32.477300  43.733300  24.097400 -56.898200  -4.676040  -0.000829   0.000000   2.661980  -0.005402  -0.010585 -11.316400  -0.539459   2.693170  -9.269310  -0.000151  -0.000467  -6.488510   0.002858  -0.000402 -15.716000  -2.825690   9.936690 -15.961700   0.005757  -0.000461 -10.630500   0.006106  -0.000136 -10.413200  -1.886360  10.154800 -10.580800   0.000508   0.000000  -7.046820   0.003821   0.000235  -9.839750  -2.442100  13.802800 -15.203000   0.005950  -0.001470 -10.125200   0.002670  -0.001006  10.713000  -0.705934   8.121040  71.123000   9.753650  37.944000  -8.454370 -31.079900  77.507800 -88.498700 -66.728500 -39.931200 -42.555300  26.160500  62.220500   7.193960   0.003619  -0.000374  -1.403030  -0.001058   0.008508  15.953300   1.351420   4.722090  13.098200   0.004048   0.000468   9.168750   0.006208   0.000113  13.807500  -0.549633  -2.227480  13.817700   0.001194   0.001147   9.202590   0.001521   0.000416  13.670100  -1.825290  -7.453070  13.788400   0.000851   0.000144   9.183040   0.002094   0.000317  16.491500  -2.191650  -7.355140  24.947500  -0.000434  -0.000551  16.615100  -0.001387  -0.001040   0.807137  14.715900   3.034800  -0.194856   1.852220  14.469700  -3.971460  -4.534840   6.290500   0.000000   0.000000  -0.000000   3.501190  12.342100  -8.175700  -2.259320   5.191520  -6.457330  -8.267800  -1.311280   9.703820   0.000000   0.000000   0.000000
